<svg width="20" height="28" viewBox="0 0 20 28" fill="none" xmlns="http://www.w3.org/2000/svg">
<path d="M13.543 2.39613C13.543 2.14994 13.4945 1.90616 13.4003 1.67871C13.3061 1.45126 13.168 1.2446 12.9939 1.07051C12.8199 0.89643 12.6132 0.75834 12.3857 0.664127C12.1583 0.569914 11.9145 0.521423 11.6683 0.521423H2.71936C2.2282 0.524436 1.75789 0.720372 1.40988 1.06698C1.06186 1.41358 0.864014 1.88308 0.859003 2.37422C0.853993 2.86537 1.04222 3.33881 1.38309 3.69244C1.72396 4.04607 2.19017 4.25156 2.68117 4.2646V23.2342C2.6802 24.1452 2.95523 25.0352 3.47003 25.7868C3.98483 26.5384 4.71523 27.1164 5.56503 27.4447C6.41483 27.7731 7.34415 27.8362 8.23055 27.6259C9.11696 27.4157 9.91888 26.9418 10.5307 26.2668C11.2205 26.955 12.0942 27.4298 13.0469 27.6343C13.4031 27.7084 13.7659 27.7459 14.1298 27.746C14.8026 27.7475 15.4692 27.6162 16.0912 27.3597C16.7133 27.1031 17.2787 26.7264 17.7549 26.2511C18.2311 25.7757 18.6089 25.2111 18.8667 24.5895C19.1244 23.968 19.2569 23.3017 19.2567 22.6288C19.2295 21.5932 18.9142 20.5858 18.3461 19.7195L14.6727 12.8924C14.6218 12.7944 14.5445 12.7125 14.4496 12.656C14.3546 12.5995 14.2458 12.5706 14.1353 12.5727C14.0251 12.5731 13.9171 12.6035 13.8229 12.6607C13.7286 12.7178 13.6517 12.7995 13.6003 12.8969L11.7076 16.4867V4.26633C12.1972 4.25609 12.6633 4.05467 13.0063 3.70517C13.3493 3.35567 13.542 2.88583 13.543 2.39613V2.39613ZM7.19436 26.5323C6.31996 26.5313 5.48166 26.1835 4.86337 25.5652C4.24507 24.9469 3.89727 24.1086 3.89626 23.2342V4.26946H10.4925V18.7912C10.4925 18.7912 9.82208 20.0903 9.6971 20.36V10.188C9.6971 10.0269 9.63309 9.87232 9.51916 9.75839C9.40522 9.64445 9.25069 9.58044 9.08956 9.58044H5.29952C5.21972 9.5804 5.1407 9.59608 5.06696 9.62659C4.99323 9.65711 4.92624 9.70186 4.86981 9.75828C4.81339 9.81471 4.76864 9.8817 4.73812 9.95543C4.70761 10.0292 4.69192 10.1082 4.69197 10.188V22.9805C4.69099 23.522 4.86588 24.0491 5.19033 24.4827C5.51478 24.9162 5.97124 25.2327 6.49105 25.3844C7.01085 25.5362 7.56589 25.5151 8.07264 25.3242C8.57939 25.1333 9.01046 24.7831 9.30098 24.3261C9.41853 24.6659 9.5729 24.9919 9.76133 25.2982C9.45314 25.6829 9.06249 25.9936 8.6182 26.2072C8.17392 26.4208 7.68733 26.5319 7.19436 26.5323ZM8.48201 10.7969V22.9805C8.48482 23.1513 8.45359 23.321 8.39015 23.4797C8.3267 23.6383 8.23232 23.7828 8.11249 23.9046C7.99265 24.0264 7.84977 24.1232 7.69218 24.1892C7.53458 24.2552 7.36541 24.2892 7.19454 24.2892C7.02366 24.2892 6.85449 24.2552 6.69689 24.1892C6.5393 24.1232 6.39642 24.0264 6.27659 23.9046C6.15675 23.7828 6.06237 23.6383 5.99893 23.4797C5.93548 23.321 5.90426 23.1513 5.90706 22.9805V10.7969H8.48201ZM14.1433 14.4727L17.2827 20.3076C17.2869 20.316 17.2915 20.3241 17.2966 20.3319C17.7525 21.0139 18.0104 21.809 18.0416 22.6288C18.0425 23.2094 17.9135 23.7828 17.6639 24.3071C17.4144 24.8313 17.0507 25.2931 16.5995 25.6585C16.1419 26.0275 15.6076 26.2896 15.0358 26.4256C14.4639 26.5615 13.8688 26.568 13.2941 26.4445C12.5861 26.2912 11.9351 25.9431 11.4147 25.4393C10.8942 24.9355 10.525 24.2962 10.3487 23.5936C10.0495 22.3326 10.5918 21.2588 11.167 20.1219L14.1433 14.4727ZM11.6694 3.05437H2.71936C2.62953 3.05983 2.53954 3.04685 2.45491 3.01623C2.37029 2.98561 2.29282 2.938 2.22729 2.87632C2.16175 2.81465 2.10953 2.74022 2.07383 2.65761C2.03813 2.57499 2.01972 2.48595 2.01972 2.39596C2.01972 2.30597 2.03813 2.21693 2.07383 2.13432C2.10953 2.0517 2.16175 1.97727 2.22729 1.9156C2.29282 1.85392 2.37029 1.80631 2.45491 1.77569C2.53954 1.74507 2.62953 1.7321 2.71936 1.73756H11.6694C11.7592 1.7321 11.8492 1.74507 11.9338 1.77569C12.0184 1.80631 12.0959 1.85392 12.1614 1.9156C12.227 1.97727 12.2792 2.0517 12.3149 2.13432C12.3506 2.21693 12.369 2.30597 12.369 2.39596C12.369 2.48595 12.3506 2.57499 12.3149 2.65761C12.2792 2.74022 12.227 2.81465 12.1614 2.87632C12.0959 2.938 12.0184 2.98561 11.9338 3.01623C11.8492 3.04685 11.7592 3.05983 11.6694 3.05437Z" fill="#9F938B"/>
</svg>
